<?xml version="1.0" encoding="UTF-8"?>
<!DOCTYPE svg PUBLIC "-//W3C//DTD SVG 1.1//EN" "http://www.w3.org/Graphics/SVG/1.1/DTD/svg11.dtd">
<!-- Creator: CorelDRAW -->
<svg xmlns="http://www.w3.org/2000/svg" xml:space="preserve" width="1.70666in" height="1.70666in" style="shape-rendering:geometricPrecision; text-rendering:geometricPrecision; image-rendering:optimizeQuality; fill-rule:evenodd; clip-rule:evenodd"
viewBox="0 0 1.70666 1.70666"
 xmlns:xlink="http://www.w3.org/1999/xlink">
 <defs>
  <style type="text/css">
   <![CDATA[
    .fil0 {fill:black}
   ]]>
  </style>
 </defs>
 <g id="Layer_x0020_1">
  <metadata id="CorelCorpID_0Corel-Layer"/>
  <g id="_223134608">
   <g>
    <g id="_223135640">
     <path id="_194000008" class="fil0" d="M1.68465 0.464417l-1.66265 0c-0.00768898,0 -0.0147992,-0.0040748 -0.018685,-0.0107047 -0.00388976,-0.00663386 -0.0039685,-0.0148268 -0.000212598,-0.0215354 0.00197638,-0.00352756 0.0494291,-0.0873937 0.138114,-0.172256 0.118421,-0.113311 0.254106,-0.173205 0.392398,-0.173205 0.104441,0 0.211937,0.0334528 0.319709,0.0994646 0.10778,-0.0660157 0.215272,-0.0994685 0.319713,-0.0994685 0.138311,0 0.274,0.0598937 0.392413,0.173205 0.0886772,0.0848622 0.136122,0.168732 0.138094,0.17226 0.00375591,0.00670866 0.00367717,0.0149055 -0.000208661,0.0215354 -0.00388583,0.00663386 -0.0109961,0.0107047 -0.018685,0.0107047zm-1.62325 -0.043311l1.58386 0c-0.0213031,-0.0313346 -0.0587992,-0.0812874 -0.11065,-0.130748 -0.111543,-0.106386 -0.233189,-0.160331 -0.361571,-0.160331 -0.0998425,0 -0.203508,0.0336339 -0.308118,0.0999606 -0.00707874,0.00449213 -0.0161142,0.00449213 -0.0231929,0 -0.104614,-0.0663268 -0.208276,-0.0999567 -0.308114,-0.0999567 -0.128362,0 -0.250008,0.0539409 -0.361555,0.160331 -0.0518465,0.0494528 -0.0893583,0.0994094 -0.110661,0.130744z"/>
    </g>
    <g id="_223134224">
     <path id="_194000488" class="fil0" d="M1.34286 0.775654c-0.00296063,0 -0.00593701,-0.000606299 -0.00875197,-0.00184646 -0.00784252,-0.0034685 -0.0129016,-0.0112362 -0.0129016,-0.019811l0 -0.311232c0,-0.0119646 0.00969291,-0.0216575 0.0216575,-0.0216575l0.341787 -3.93701e-006c0.00894488,0 0.0169685,0.0055 0.0201969,0.0138386 0.00323228,0.00834252 0.001,0.017811 -0.00561024,0.0238346l-0.341795 0.311232c-0.00406693,0.00370866 -0.0092874,0.00564567 -0.0145827,0.00564567zm0.0216614 -0.311232l0 0.240559 0.264177 -0.240559 -0.264177 0zm-1.00072 0.311232c-0.00529528,0 -0.0105197,-0.00194094 -0.0145866,-0.00564173l-0.341795 -0.311232c-0.00661417,-0.00602756 -0.00884646,-0.0154921 -0.00561811,-0.0238307 0.00322835,-0.00834252 0.011252,-0.0138425 0.0202008,-0.0138425l0.341795 0c0.0119606,0 0.0216575,0.00969685 0.0216575,0.0216575l0 0.311232c0,0.0085748 -0.00506299,0.0163425 -0.0129055,0.019811 -0.00281102,0.00124016 -0.00579134,0.00184646 -0.00874803,0.00184646zm-0.285846 -0.311232l0.264185 0.240563 0 -0.240563 -0.264185 0z"/>
    </g>
    <g id="_223135568">
     <path id="_193999528" class="fil0" d="M0.853331 1.61994c-0.136004,0 -0.264224,-0.0533228 -0.361047,-0.150142 -0.0968189,-0.0968228 -0.150138,-0.225043 -0.150138,-0.361047l0 -0.665996c0,-0.0119646 0.00969685,-0.0216575 0.0216575,-0.0216575l0.979059 0c0.0119646,0 0.0216614,0.00969291 0.0216614,0.0216575l0 0.665996c0,0.136004 -0.0533228,0.264228 -0.150142,0.361047 -0.0968228,0.0968189 -0.225047,0.150142 -0.361051,0.150142zm-0.46787 -1.15553l0 0.644343c0,0.257984 0.209886,0.46787 0.46787,0.46787l0 0c0.257988,0 0.467878,-0.209886 0.467878,-0.46787l0 -0.644343 -0.935748 0z"/>
    </g>
    <g id="_223135280">
     <path id="_193999096" class="fil0" d="M0.853331 1.48333c-0.0995315,0 -0.193453,-0.0391063 -0.264465,-0.110114 -0.0710079,-0.0710039 -0.110114,-0.164929 -0.110114,-0.264465 0,-0.0119606 0.00969685,-0.0216575 0.0216575,-0.0216575 0.0119646,0 0.0216575,0.00969685 0.0216575,0.0216575 0,0.182657 0.148606,0.33126 0.331264,0.33126 0.0119646,0 0.0216614,0.00969685 0.0216614,0.0216614 0,0.0119606 -0.00969685,0.0216575 -0.0216614,0.0216575z"/>
    </g>
    <g id="_223135520">
     <path id="_193998664" class="fil0" d="M0.853331 0.899366c-0.0119646,0 -0.0216614,-0.00969291 -0.0216614,-0.0216575l0 -0.434953c0,-0.0119646 0.00969685,-0.0216575 0.0216614,-0.0216575 0.0119606,0 0.0216575,0.00969291 0.0216575,0.0216575l0 0.434953c0,0.0119646 -0.00969685,0.0216575 -0.0216575,0.0216575z"/>
    </g>
   </g>
  </g>
 </g>
</svg>
